<svg width="25" height="25" viewBox="0 0 25 25" fill="none" xmlns="http://www.w3.org/2000/svg">
<g id="times">
<path id="Vector" d="M15.7578 12.5L20.644 7.61377C21.2437 7.01416 21.2437 6.04199 20.644 5.44189L19.5581 4.35596C18.9585 3.75635 17.9863 3.75635 17.3862 4.35596L12.5 9.24219L7.61377 4.35596C7.01416 3.75635 6.04199 3.75635 5.44189 4.35596L4.35596 5.44189C3.75635 6.0415 3.75635 7.01367 4.35596 7.61377L9.24219 12.5L4.35596 17.3862C3.75635 17.9858 3.75635 18.958 4.35596 19.5581L5.44189 20.644C6.0415 21.2437 7.01416 21.2437 7.61377 20.644L12.5 15.7578L17.3862 20.644C17.9858 21.2437 18.9585 21.2437 19.5581 20.644L20.644 19.5581C21.2437 18.9585 21.2437 17.9863 20.644 17.3862L15.7578 12.5Z" fill="#ED164E"/>
</g>
</svg>
