<svg xmlns="http://www.w3.org/2000/svg" viewBox="0 0 32 32"><path fill="currentColor" d="M16.004 7.796A8.19 8.19 0 0 0 7.8 16a8.19 8.19 0 0 0 8.203 8.204A8.19 8.19 0 0 0 24.206 16a8.19 8.19 0 0 0-8.202-8.204m0 13.538A5.343 5.343 0 0 1 10.67 16a5.338 5.338 0 0 1 5.333-5.334A5.338 5.338 0 0 1 21.336 16a5.343 5.343 0 0 1-5.332 5.334M26.454 7.46a1.909 1.909 0 0 1-1.912 1.914 1.914 1.914 0 1 1 1.913-1.914m5.433 1.942c-.122-2.563-.707-4.834-2.585-6.705C27.433.827 25.163.241 22.6.112c-2.641-.15-10.559-.15-13.2 0C6.844.234 4.574.82 2.697 2.69.819 4.561.24 6.832.112 9.395c-.15 2.642-.15 10.56 0 13.203.122 2.563.707 4.834 2.585 6.705 1.877 1.87 4.14 2.456 6.703 2.585 2.641.15 10.559.15 13.2 0 2.563-.122 4.833-.707 6.703-2.585 1.87-1.871 2.456-4.142 2.585-6.705.15-2.642.15-10.554 0-13.196m-3.413 16.03a5.4 5.4 0 0 1-3.041 3.042c-2.106.836-7.103.643-9.43.643-2.328 0-7.332.186-9.43-.643a5.4 5.4 0 0 1-3.042-3.041c-.835-2.107-.643-7.105-.643-9.433 0-2.328-.185-7.333.643-9.433a5.4 5.4 0 0 1 3.041-3.041c2.106-.836 7.103-.643 9.43-.643 2.328 0 7.332-.186 9.431.643a5.4 5.4 0 0 1 3.041 3.041c.835 2.107.643 7.105.643 9.433 0 2.328.192 7.333-.643 9.433"/></svg>
