<svg xmlns="http://www.w3.org/2000/svg" viewBox="0 0 32 32"><path fill="#24a1de" d="M16 0A15.998 15.998 0 0 0 4.687 4.686 16.005 16.005 0 0 0 0 16a16.005 16.005 0 0 0 16 16 15.998 15.998 0 0 0 16-16A16.005 16.005 0 0 0 16 0"/><path fill="#fff" d="M7.243 15.831c4.665-2.032 7.774-3.372 9.33-4.019 4.445-1.848 5.367-2.17 5.97-2.18.132-.002.427.03.62.186.16.131.204.309.227.433.02.125.047.409.025.63-.24 2.53-1.283 8.67-1.813 11.503-.222 1.2-.665 1.601-1.092 1.64-.93.086-1.635-.613-2.535-1.203-1.408-.923-2.203-1.498-3.57-2.399-1.58-1.04-.555-1.613.345-2.548.235-.244 4.33-3.968 4.407-4.306.01-.042.02-.2-.075-.283-.092-.083-.23-.055-.33-.032-.142.032-2.39 1.519-6.75 4.46-.637.44-1.215.653-1.735.642-.57-.012-1.67-.323-2.487-.589-1-.325-1.798-.498-1.728-1.051.035-.288.433-.583 1.19-.884"/></svg>
