<svg xmlns="http://www.w3.org/2000/svg" viewBox="0 0 32 32"><path fill="currentColor" d="M12.135 31.588v-10.64H8.836v-4.89h3.299v-2.106c0-5.447 2.464-7.97 7.81-7.97.535 0 1.274.055 1.958.137a12 12 0 0 1 1.521.26v4.433a12 12 0 0 0-.87-.048 36 36 0 0 0-.978-.012c-.943 0-1.679.128-2.233.412a2.267 2.267 0 0 0-.906.83c-.344.56-.498 1.326-.498 2.335v1.73h5.225l-.515 2.804-.382 2.085h-4.328v10.993C25.86 30.984 32 24.24 32 16.06c0-8.836-7.164-16-16-16s-16 7.164-16 16c0 7.504 5.165 13.8 12.135 15.529"/></svg>
