<svg xmlns="http://www.w3.org/2000/svg" viewBox="0 0 32 32"><path fill="#0a66c2" d="M29.63.002H2.36A2.335 2.335 0 0 0 0 2.31v27.382A2.337 2.337 0 0 0 2.361 32H29.63A2.342 2.342 0 0 0 32 29.69V2.308A2.34 2.34 0 0 0 29.63 0"/><path fill="#fff" d="M9.49 27.266H4.744v-15.27H9.49zM7.12 9.909a2.752 2.752 0 1 1 2.75-2.752 2.752 2.752 0 0 1-2.75 2.752M27.265 27.266h-4.74V19.84c0-1.771-.033-4.05-2.467-4.05-2.47 0-2.847 1.929-2.847 3.92v7.554H12.47v-15.27h4.551v2.088h.064a4.988 4.988 0 0 1 4.49-2.467c4.806 0 5.692 3.161 5.692 7.273z"/></svg>
