<svg xmlns="http://www.w3.org/2000/svg" viewBox="0 0 32 32"><path fill="currentColor" d="M7.27 10.646v20.646H.397V10.646Zm.438-6.375q.021 1.52-1.052 2.542-1.073 1.02-2.823 1.02h-.041q-1.709 0-2.75-1.02Q0 5.792 0 4.27q0-1.542 1.073-2.552T3.875.709q1.73 0 2.77 1.01 1.042 1.01 1.063 2.552M32 19.458v11.834h-6.854V20.25q0-2.188-.844-3.427-.844-1.24-2.635-1.24-1.313 0-2.198.72-.886.718-1.323 1.78-.23.625-.23 1.688v11.52h-6.854q.042-8.312.042-13.479 0-5.166-.02-6.166l-.021-1h6.854v3h-.042q.417-.667.854-1.167.438-.5 1.177-1.083.74-.583 1.813-.906 1.073-.323 2.385-.323 3.563 0 5.73 2.364Q32 14.896 32 19.458"/></svg>
