<svg xmlns="http://www.w3.org/2000/svg" viewBox="0 0 32 32"><path fill="#ff004f" d="M22.828 11.551a12.568 12.568 0 0 0 7.331 2.345V8.638a7.424 7.424 0 0 1-1.54-.16v4.138a12.57 12.57 0 0 1-7.33-2.345v10.73c0 5.368-4.354 9.719-9.724 9.719a9.68 9.68 0 0 1-5.413-1.644A9.696 9.696 0 0 0 13.104 32c5.37 0 9.724-4.351 9.724-9.719v-10.73Zm1.9-5.304a7.326 7.326 0 0 1-1.9-4.29V1.28h-1.459a7.362 7.362 0 0 0 3.358 4.967M9.548 24.957a4.426 4.426 0 0 1-.907-2.691 4.447 4.447 0 0 1 4.448-4.446 4.46 4.46 0 0 1 1.35.209v-5.376c-.51-.07-1.026-.1-1.54-.089v4.184a4.455 4.455 0 0 0-1.35-.208 4.447 4.447 0 0 0-2 8.417"/><path d="M21.288 10.271a12.57 12.57 0 0 0 7.332 2.345V8.477a7.36 7.36 0 0 1-3.893-2.23A7.362 7.362 0 0 1 21.37 1.28h-3.832v21a4.447 4.447 0 0 1-7.99 2.677 4.445 4.445 0 0 1 2.002-8.417c.47 0 .924.074 1.35.209v-4.184c-5.276.109-9.519 4.417-9.519 9.716a9.683 9.683 0 0 0 2.772 6.795 9.682 9.682 0 0 0 5.413 1.644c5.37 0 9.724-4.351 9.724-9.719z"/><path fill="#00f2ea" d="M28.62 8.477V7.358a7.333 7.333 0 0 1-3.893-1.111 7.353 7.353 0 0 0 3.893 2.23M21.369 1.28a7.499 7.499 0 0 1-.08-.604V0h-5.292v21.001a4.447 4.447 0 0 1-4.448 4.43 4.432 4.432 0 0 1-2.001-.474 4.447 4.447 0 0 0 7.989-2.676V1.28Zm-8.47 11.284v-1.19a9.822 9.822 0 0 0-1.334-.091c-5.37 0-9.724 4.35-9.724 9.718a9.708 9.708 0 0 0 4.31 8.075 9.683 9.683 0 0 1-2.77-6.795c0-5.299 4.242-9.607 9.518-9.716"/></svg>
