<svg xmlns="http://www.w3.org/2000/svg" viewBox="0 0 32 32"><path fill="currentColor" d="M16 0C7.163 0 0 7.163 0 16s7.163 16 16 16 16-7.163 16-16S24.837 0 16 0m7.416 10.881c-.24 2.53-1.282 8.67-1.813 11.504-.224 1.198-.666 1.6-1.093 1.64-.93.085-1.635-.614-2.535-1.204-1.408-.923-2.203-1.498-3.57-2.399-1.58-1.04-.556-1.613.344-2.548.236-.245 4.33-3.968 4.409-4.306.01-.042.02-.2-.075-.283-.093-.083-.231-.055-.33-.032q-.213.048-6.75 4.46-.957.658-1.735.641c-.571-.012-1.67-.323-2.487-.588-1.002-.326-1.798-.498-1.729-1.051q.054-.432 1.19-.884 6.997-3.048 9.331-4.02c4.444-1.848 5.367-2.169 5.969-2.18.132-.002.428.031.62.187a.674.674 0 0 1 .227.433 2.824 2.824 0 0 1 .027.63"/></svg>
