<svg xmlns="http://www.w3.org/2000/svg" viewBox="0 0 32 32"><path fill="#55acee" d="M32 6.078a13.13 13.127 0 0 1-3.77 1.033 6.583 6.583 0 0 0 2.886-3.631 13.148 13.145 0 0 1-4.169 1.593A6.558 6.558 0 0 0 22.155 3a6.565 6.565 0 0 0-6.396 8.06A18.64 18.64 0 0 1 2.229 4.2a6.533 6.533 0 0 0-.89 3.3 6.56 6.56 0 0 0 2.921 5.464 6.539 6.538 0 0 1-2.973-.822v.083a6.568 6.568 0 0 0 5.266 6.436 6.574 6.573 0 0 1-2.965.113 6.572 6.572 0 0 0 6.133 4.558 13.175 13.175 0 0 1-8.154 2.81c-.53 0-1.052-.031-1.566-.092A18.585 18.585 0 0 0 10.064 29c12.076 0 18.679-10.002 18.679-18.675 0-.285-.006-.568-.019-.85A13.344 13.34 0 0 0 32 6.079"/></svg>
